# xmcd CD database file
#
# Track frame offsets:
#	150
#	17232
#	39380
#	65502
#	84850
#	86837
#	119912
#	142200
#	179415
#	211727
#	230462
#	255950
#	295970
#
# Disc length: 4052 seconds
#
# Revision: 0
# Processed by: cddbd v1.4PL0 Copyright (c) Steve Scherf et al.
# Submitted via: CDex 1.40PlusFr
#
DISCID=bb0fd20d
DTITLE=David Lynch - John Neff - BlueBob
DYEAR=2001
DGENRE=Blues
TTITLE0=9*1*1
TTITLE1=Rollin' Down (To My House)
TTITLE2=Thank You, Judge
TTITLE3=I Cannot Do That
TTITLE4=Factory Interlude (instrumental)
TTITLE5=Blue Horse (instrumental)
TTITLE6=Bad Night
TTITLE7=Mountains Falling
TTITLE8=Go Get Some (instrumental)
TTITLE9=Pink Western Range
TTITLE10=Marilyn Monroe
TTITLE11=City of Dreams
TTITLE12=Thank You, Judge [CD Extra)
EXTD=YEAR: 2001 ID3G: 0
EXTT0=
EXTT1=
EXTT2=
EXTT3=
EXTT4=
EXTT5=
EXTT6=
EXTT7=
EXTT8=
EXTT9=
EXTT10=
EXTT11=
EXTT12=
PLAYORDER=
